<svg xmlns="http://www.w3.org/2000/svg" viewBox="0 0 110 110"><path fill="#3776AB" d="M55.1 10C30.2 10 31.8 20.8 31.8 20.8V31H55.4V34.3H21.5C21.5 34.3 10 32.7 10 57.5C10 82.2 20.2 81 20.2 81H26.3V72.4C26.3 72.4 25.8 61.6 37 61.6H55.1V58.2H78.8C78.8 58.2 90 58.5 90 33.7C90 8.9 79.9 10 79.9 10H55.1z"/><path fill="#FFD43B" d="M54.9 100C79.8 100 78.2 89.2 78.2 89.2V79H54.6V75.7H88.5C88.5 75.7 100 77.3 100 52.5C100 27.8 89.8 29 89.8 29H83.7V37.6C83.7 37.6 84.2 48.4 73 48.4H54.9V51.8H31.2C31.2 51.8 20 51.5 20 76.3C20 101.1 30.1 100 30.1 100H54.9z"/></svg>
