<svg xmlns="http://www.w3.org/2000/svg" viewBox="0 0 400 200">
  <rect width="400" height="200" fill="#0d1117"/>

  <!-- Background glow -->
  <ellipse cx="200" cy="100" rx="160" ry="90" fill="#f59e0b08"/>

  <!-- Phone frame left -->
  <rect x="30" y="10" width="140" height="180" rx="16" fill="#1a1a2e" stroke="#f59e0b40" stroke-width="1.5"/>
  <!-- Phone notch -->
  <rect x="78" y="14" width="44" height="8" rx="4" fill="#0d1117"/>

  <!-- App header -->
  <rect x="30" y="28" width="140" height="32" fill="#f59e0b"/>
  <text x="100" y="48" fill="#0d1117" font-family="Arial,sans-serif" font-size="11" font-weight="bold" text-anchor="middle">Sabor &amp; Arte</text>

  <!-- Category tabs -->
  <rect x="36" y="64" width="38" height="14" rx="7" fill="#f59e0b"/>
  <text x="55" y="74" fill="#0d1117" font-family="Arial,sans-serif" font-size="7" font-weight="bold" text-anchor="middle">Pratos</text>
  <rect x="80" y="64" width="38" height="14" rx="7" fill="#ffffff10"/>
  <text x="99" y="74" fill="#94a3b8" font-family="Arial,sans-serif" font-size="7" text-anchor="middle">Bebidas</text>
  <rect x="124" y="64" width="38" height="14" rx="7" fill="#ffffff10"/>
  <text x="143" y="74" fill="#94a3b8" font-family="Arial,sans-serif" font-size="7" text-anchor="middle">Sobrem.</text>

  <!-- Menu item 1 -->
  <rect x="36" y="84" width="59" height="52" rx="6" fill="#1e293b"/>
  <rect x="36" y="84" width="59" height="32" rx="6" fill="#f59e0b30"/>
  <text x="66" y="103" font-family="Arial,sans-serif" font-size="20" text-anchor="middle">&#x1F357;</text>
  <text x="66" y="122" fill="#e2e8f0" font-family="Arial,sans-serif" font-size="7" font-weight="bold" text-anchor="middle">Frango Grelhado</text>
  <text x="66" y="132" fill="#f59e0b" font-family="Arial,sans-serif" font-size="7" font-weight="bold" text-anchor="middle">R$ 38,90</text>

  <!-- Menu item 2 -->
  <rect x="101" y="84" width="59" height="52" rx="6" fill="#1e293b"/>
  <rect x="101" y="84" width="59" height="32" rx="6" fill="#ef444430"/>
  <text x="131" y="103" font-family="Arial,sans-serif" font-size="20" text-anchor="middle">&#x1F355;</text>
  <text x="131" y="122" fill="#e2e8f0" font-family="Arial,sans-serif" font-size="7" font-weight="bold" text-anchor="middle">Pizza Margherita</text>
  <text x="131" y="132" fill="#f59e0b" font-family="Arial,sans-serif" font-size="7" font-weight="bold" text-anchor="middle">R$ 54,90</text>

  <!-- Menu item 3 -->
  <rect x="36" y="142" width="59" height="38" rx="6" fill="#1e293b"/>
  <text x="65" y="158" font-family="Arial,sans-serif" font-size="14" text-anchor="middle">&#x1F969;</text>
  <text x="66" y="170" fill="#e2e8f0" font-family="Arial,sans-serif" font-size="7" font-weight="bold" text-anchor="middle">Picanha</text>
  <text x="66" y="178" fill="#f59e0b" font-family="Arial,sans-serif" font-size="7" font-weight="bold" text-anchor="middle">R$ 89,90</text>

  <!-- Menu item 4 -->
  <rect x="101" y="142" width="59" height="38" rx="6" fill="#1e293b"/>
  <text x="130" y="158" font-family="Arial,sans-serif" font-size="14" text-anchor="middle">&#x1F35C;</text>
  <text x="131" y="170" fill="#e2e8f0" font-family="Arial,sans-serif" font-size="7" font-weight="bold" text-anchor="middle">Massa ao Molho</text>
  <text x="131" y="178" fill="#f59e0b" font-family="Arial,sans-serif" font-size="7" font-weight="bold" text-anchor="middle">R$ 42,90</text>

  <!-- Right panel - Order summary -->
  <rect x="185" y="10" width="185" height="180" rx="12" fill="#1a1a2e" stroke="#f59e0b25" stroke-width="1"/>
  <rect x="185" y="10" width="185" height="28" rx="12" fill="#f59e0b20"/>
  <text x="277" y="28" fill="#f59e0b" font-family="Arial,sans-serif" font-size="10" font-weight="bold" text-anchor="middle">Resumo do Pedido</text>

  <text x="197" y="55" fill="#94a3b8" font-family="Arial,sans-serif" font-size="8">Mesa #04 - Garcom: Carlos</text>

  <!-- Order items -->
  <line x1="197" y1="62" x2="358" y2="62" stroke="#ffffff10" stroke-width="1"/>
  <text x="197" y="75" fill="#e2e8f0" font-family="Arial,sans-serif" font-size="8">2x Frango Grelhado</text>
  <text x="358" y="75" fill="#e2e8f0" font-family="Arial,sans-serif" font-size="8" text-anchor="end">R$ 77,80</text>

  <line x1="197" y1="80" x2="358" y2="80" stroke="#ffffff06" stroke-width="1"/>
  <text x="197" y="93" fill="#e2e8f0" font-family="Arial,sans-serif" font-size="8">1x Pizza Margherita</text>
  <text x="358" y="93" fill="#e2e8f0" font-family="Arial,sans-serif" font-size="8" text-anchor="end">R$ 54,90</text>

  <line x1="197" y1="98" x2="358" y2="98" stroke="#ffffff06" stroke-width="1"/>
  <text x="197" y="111" fill="#e2e8f0" font-family="Arial,sans-serif" font-size="8">2x Suco de Laranja</text>
  <text x="358" y="111" fill="#e2e8f0" font-family="Arial,sans-serif" font-size="8" text-anchor="end">R$ 22,00</text>

  <line x1="197" y1="116" x2="358" y2="116" stroke="#ffffff10" stroke-width="1"/>
  <text x="197" y="129" fill="#94a3b8" font-family="Arial,sans-serif" font-size="8">Taxa de Servico (10%)</text>
  <text x="358" y="129" fill="#94a3b8" font-family="Arial,sans-serif" font-size="8" text-anchor="end">R$ 15,47</text>

  <line x1="197" y1="134" x2="358" y2="134" stroke="#f59e0b40" stroke-width="1.5"/>
  <text x="197" y="148" fill="#f59e0b" font-family="Arial,sans-serif" font-size="10" font-weight="bold">TOTAL</text>
  <text x="358" y="148" fill="#f59e0b" font-family="Arial,sans-serif" font-size="11" font-weight="bold" text-anchor="end">R$ 170,17</text>

  <!-- Status badges -->
  <rect x="197" y="158" width="52" height="14" rx="7" fill="#22c55e25"/>
  <text x="223" y="168" fill="#22c55e" font-family="Arial,sans-serif" font-size="7" text-anchor="middle">Preparando</text>
  <rect x="256" y="158" width="48" height="14" rx="7" fill="#f59e0b25"/>
  <text x="280" y="168" fill="#f59e0b" font-family="Arial,sans-serif" font-size="7" text-anchor="middle">~20 min</text>

  <!-- Pay button -->
  <rect x="197" y="178" width="155" height="0" rx="6" fill="#f59e0b"/>
</svg>
