<svg xmlns="http://www.w3.org/2000/svg" viewBox="0 0 400 200">
  <defs>
    <linearGradient id="bg" x1="0%" y1="0%" x2="100%" y2="100%">
      <stop offset="0%" style="stop-color:#0d1117"/>
      <stop offset="100%" style="stop-color:#111827"/>
    </linearGradient>
  </defs>
  <!-- Background -->
  <rect width="400" height="200" fill="url(#bg)"/>

  <!-- Top bar -->
  <rect width="400" height="36" fill="#161b22"/>
  <rect x="12" y="11" width="10" height="10" rx="2" fill="#22c55e"/>
  <text x="28" y="22" fill="#e2e8f0" font-family="Arial,sans-serif" font-size="11" font-weight="bold">Sistema de Estoque</text>
  <rect x="310" y="9" width="66" height="16" rx="8" fill="#22c55e20"/>
  <circle cx="321" cy="17" r="3" fill="#22c55e"/>
  <text x="330" y="21" fill="#22c55e" font-family="Arial,sans-serif" font-size="9">Atualizado</text>

  <!-- Stats row -->
  <rect x="12" y="44" width="80" height="38" rx="6" fill="#161b22" stroke="#22c55e25" stroke-width="1"/>
  <text x="52" y="60" fill="#22c55e" font-family="Arial,sans-serif" font-size="14" font-weight="bold" text-anchor="middle">1.247</text>
  <text x="52" y="73" fill="#64748b" font-family="Arial,sans-serif" font-size="8" text-anchor="middle">Total Itens</text>

  <rect x="100" y="44" width="80" height="38" rx="6" fill="#161b22" stroke="#f59e0b25" stroke-width="1"/>
  <text x="140" y="60" fill="#f59e0b" font-family="Arial,sans-serif" font-size="14" font-weight="bold" text-anchor="middle">18</text>
  <text x="140" y="73" fill="#64748b" font-family="Arial,sans-serif" font-size="8" text-anchor="middle">Estoque Baixo</text>

  <rect x="188" y="44" width="80" height="38" rx="6" fill="#161b22" stroke="#ef444425" stroke-width="1"/>
  <text x="228" y="60" fill="#ef4444" font-family="Arial,sans-serif" font-size="14" font-weight="bold" text-anchor="middle">5</text>
  <text x="228" y="73" fill="#64748b" font-family="Arial,sans-serif" font-size="8" text-anchor="middle">Esgotados</text>

  <!-- Table -->
  <rect x="12" y="92" width="256" height="98" rx="6" fill="#161b22" stroke="#ffffff0a" stroke-width="1"/>
  <!-- Header -->
  <rect x="12" y="92" width="256" height="20" rx="6" fill="#22c55e18"/>
  <text x="22" y="106" fill="#22c55e" font-family="Arial,sans-serif" font-size="8" font-weight="bold">PRODUTO</text>
  <text x="140" y="106" fill="#22c55e" font-family="Arial,sans-serif" font-size="8" font-weight="bold">QTDE</text>
  <text x="185" y="106" fill="#22c55e" font-family="Arial,sans-serif" font-size="8" font-weight="bold">CATEGORIA</text>
  <text x="242" y="106" fill="#22c55e" font-family="Arial,sans-serif" font-size="8" font-weight="bold">STATUS</text>

  <!-- Row 1 -->
  <text x="22" y="122" fill="#e2e8f0" font-family="Arial,sans-serif" font-size="8">Notebook Dell i5</text>
  <text x="148" y="122" fill="#e2e8f0" font-family="Arial,sans-serif" font-size="8" text-anchor="middle">245</text>
  <text x="200" y="122" fill="#94a3b8" font-family="Arial,sans-serif" font-size="8">Informatica</text>
  <rect x="238" y="114" width="26" height="11" rx="5" fill="#22c55e25"/>
  <text x="251" y="122" fill="#22c55e" font-family="Arial,sans-serif" font-size="7" text-anchor="middle">OK</text>

  <!-- Row 2 -->
  <rect x="12" y="126" width="256" height="18" fill="#ffffff04"/>
  <text x="22" y="138" fill="#e2e8f0" font-family="Arial,sans-serif" font-size="8">Mouse Gamer Pro</text>
  <text x="148" y="138" fill="#e2e8f0" font-family="Arial,sans-serif" font-size="8" text-anchor="middle">18</text>
  <text x="200" y="138" fill="#94a3b8" font-family="Arial,sans-serif" font-size="8">Perifericos</text>
  <rect x="234" y="130" width="34" height="11" rx="5" fill="#f59e0b25"/>
  <text x="251" y="138" fill="#f59e0b" font-family="Arial,sans-serif" font-size="7" text-anchor="middle">Baixo</text>

  <!-- Row 3 -->
  <text x="22" y="155" fill="#e2e8f0" font-family="Arial,sans-serif" font-size="8">Teclado Mecanico</text>
  <text x="148" y="155" fill="#e2e8f0" font-family="Arial,sans-serif" font-size="8" text-anchor="middle">0</text>
  <text x="200" y="155" fill="#94a3b8" font-family="Arial,sans-serif" font-size="8">Perifericos</text>
  <rect x="228" y="147" width="46" height="11" rx="5" fill="#ef444425"/>
  <text x="251" y="155" fill="#ef4444" font-family="Arial,sans-serif" font-size="7" text-anchor="middle">Esgotado</text>

  <!-- Row 4 -->
  <rect x="12" y="158" width="256" height="18" fill="#ffffff04"/>
  <text x="22" y="170" fill="#e2e8f0" font-family="Arial,sans-serif" font-size="8">SSD 1TB NVMe</text>
  <text x="148" y="170" fill="#e2e8f0" font-family="Arial,sans-serif" font-size="8" text-anchor="middle">512</text>
  <text x="200" y="170" fill="#94a3b8" font-family="Arial,sans-serif" font-size="8">Armazenamento</text>
  <rect x="238" y="162" width="26" height="11" rx="5" fill="#22c55e25"/>
  <text x="251" y="170" fill="#22c55e" font-family="Arial,sans-serif" font-size="7" text-anchor="middle">OK</text>

  <!-- Bar chart -->
  <rect x="280" y="92" width="108" height="98" rx="6" fill="#161b22" stroke="#ffffff0a" stroke-width="1"/>
  <text x="334" y="108" fill="#64748b" font-family="Arial,sans-serif" font-size="8" text-anchor="middle">Estoque/Categoria</text>

  <!-- Bars (bottom at y=178, max height=60) -->
  <rect x="293" y="128" width="16" height="50" rx="2" fill="#22c55e" opacity="0.85"/>
  <rect x="316" y="138" width="16" height="40" rx="2" fill="#3b82f6" opacity="0.85"/>
  <rect x="339" y="118" width="16" height="60" rx="2" fill="#f59e0b" opacity="0.85"/>
  <rect x="362" y="148" width="16" height="30" rx="2" fill="#8b5cf6" opacity="0.85"/>

  <!-- Bar labels -->
  <text x="301" y="188" fill="#64748b" font-family="Arial,sans-serif" font-size="7" text-anchor="middle">Info</text>
  <text x="324" y="188" fill="#64748b" font-family="Arial,sans-serif" font-size="7" text-anchor="middle">Peri</text>
  <text x="347" y="188" fill="#64748b" font-family="Arial,sans-serif" font-size="7" text-anchor="middle">Alim</text>
  <text x="370" y="188" fill="#64748b" font-family="Arial,sans-serif" font-size="7" text-anchor="middle">Out</text>
</svg>
