<svg xmlns="http://www.w3.org/2000/svg" viewBox="0 0 24 24"><path fill="#2496ED" d="M13.962 11.062h-2.13V13.2h2.13v-2.138zM16.906 11.062h-2.13V13.2h2.13v-2.138zM10.992 11.062h-2.13V13.2h2.13v-2.138zM10.992 8.088h-2.13V10.22h2.13V8.088zM13.962 8.088h-2.13V10.22h2.13V8.088zM13.962 5.062h-2.13V7.243h2.13V5.062zM8.077 11.062h-2.13V13.2h2.13v-2.138zM23.99 12.515c-.456-.705-1.125-1.166-1.92-1.39a3.7 3.7 0 0 0-2.43.12 6.02 6.02 0 0 0-1.8 1.135 11.16 11.16 0 0 1-1.31-.05c-.172-.02-.344-.047-.514-.08h-.01c-.13-.03-.263-.06-.395-.098l-.135-.043H6.012v4.86c0 .354.025.71.074 1.055.207.674.67 1.252 1.26 1.57a15.7 15.7 0 0 0 6.64 1.4c.73 0 1.45-.04 2.164-.12a5.45 5.45 0 0 0 3.23-1.42 5.92 5.92 0 0 0 1.83-3.15 3.96 3.96 0 0 0-.25-2.22l-.183-.34-.143-.27z"/></svg>
