<svg xmlns="http://www.w3.org/2000/svg" width="225" height="225" viewBox="0 0 225 225">
<g>
<path d="M 66.11 124.63 C66.08,133.79 65.82,141.52 65.53,141.81 C65.24,142.10 65.00,133.00 65.00,121.58 C65.00,99.22 65.31,98.15 69.62,105.82 C72.51,110.97 72.66,112.01 70.03,108.86 C68.92,107.52 68.05,107.07 68.03,107.81 C68.01,108.53 67.59,108.86 67.08,108.55 C66.54,108.22 66.14,114.82 66.11,124.63 ZM 151.00 88.57 C151.00,92.23 150.68,93.00 149.13,93.00 C147.56,93.00 147.24,92.17 147.15,87.75 C147.07,83.81 147.31,82.87 148.10,84.00 C148.89,85.13 149.28,85.19 149.66,84.25 C149.94,83.56 151.37,83.06 152.83,83.14 C155.19,83.26 155.24,83.32 153.25,83.71 C151.32,84.08 151.00,84.77 151.00,88.57 ZM 80.34 103.20 C80.93,105.44 80.70,105.45 78.81,103.25 C75.93,99.90 75.56,98.71 77.83,100.13 C78.95,100.83 80.08,102.21 80.34,103.20 ZM 85.61 111.42 C85.94,112.29 85.77,113.00 85.22,113.00 C84.68,113.00 84.00,112.10 83.71,111.00 C83.42,109.90 83.60,109.00 84.09,109.00 C84.59,109.00 85.00,109.19 85.00,109.42 C85.00,109.65 85.27,110.55 85.61,111.42 Z" fill="rgb(72,40,188)"/>
<path d="M 0.00 0.00 L 225.00 0.00 L 225.00 225.00 L 0.00 225.00 ZM 151.00 88.57 C151.00,88.42 151.00,88.28 151.00,88.14 C151.03,90.24 151.58,92.24 152.23,92.64 C152.91,93.06 156.62,93.65 160.48,93.95 L 167.50 94.50 L 167.76 118.00 C167.90,130.93 168.22,142.06 168.47,142.75 C168.74,143.47 170.66,144.00 172.97,144.00 L 177.00 144.00 L 177.00 93.46 L 184.46 93.84 C193.16,94.28 195.00,93.18 195.00,87.57 L 195.00 84.00 L 152.25 84.00 C152.52,83.87 152.85,83.78 153.25,83.71 C155.24,83.32 155.19,83.26 152.83,83.14 C151.37,83.06 149.94,83.56 149.66,84.25 C149.28,85.19 148.89,85.13 148.10,84.00 C147.40,83.01 147.13,83.62 147.14,86.49 L 146.77 84.00 L 116.00 84.00 L 116.00 113.33 C116.00,129.47 116.31,142.98 116.69,143.36 C117.07,143.74 124.16,143.93 132.44,143.78 L 147.50 143.50 L 147.80 138.79 L 148.11 134.07 L 137.80 133.79 L 127.50 133.50 L 126.92 117.00 L 145.00 117.00 L 145.00 108.41 L 138.53 108.82 C134.96,109.04 130.91,108.94 129.53,108.60 C127.13,107.99 127.00,107.61 127.00,100.98 L 127.00 94.00 L 136.53 94.00 C145.31,94.00 146.13,93.83 146.84,91.89 C147.03,91.39 147.16,90.69 147.24,89.93 C147.41,92.46 147.86,93.00 149.13,93.00 C150.68,93.00 151.00,92.23 151.00,88.57 ZM 66.11 124.63 C66.14,114.82 66.54,108.22 67.08,108.55 C67.59,108.86 68.01,108.53 68.03,107.81 C68.05,107.07 68.92,107.52 70.03,108.86 C72.66,112.01 72.51,110.97 69.62,105.82 C69.41,105.44 69.20,105.08 69.01,104.74 C71.65,108.45 75.00,113.69 75.00,114.46 C75.00,114.75 75.67,115.77 76.48,116.74 C77.29,117.71 81.49,124.12 85.82,131.00 L 93.68 143.50 L 98.49 143.81 C101.67,144.02 103.59,143.68 104.14,142.81 C104.60,142.09 104.98,128.56 104.98,112.75 L 105.00 84.00 L 94.00 84.00 L 94.00 104.00 C94.00,115.00 93.81,124.00 93.58,124.00 C92.05,124.00 90.11,122.64 90.57,121.89 C90.88,121.39 90.43,120.72 89.57,120.39 C88.71,120.06 88.26,119.39 88.56,118.90 C88.87,118.40 88.61,118.00 88.00,118.00 C87.39,118.00 87.16,117.55 87.50,116.99 C87.85,116.44 87.43,115.72 86.57,115.39 C85.71,115.06 85.26,114.39 85.56,113.90 C85.87,113.40 85.64,113.00 85.06,113.00 C84.56,113.00 84.14,112.51 84.03,111.86 C84.37,112.53 84.83,113.00 85.22,113.00 C85.77,113.00 85.94,112.29 85.61,111.42 C85.27,110.55 85.00,109.65 85.00,109.42 C85.00,109.19 84.59,109.00 84.09,109.00 C83.70,109.00 83.51,109.55 83.59,110.31 C83.41,110.12 83.18,110.00 82.94,110.00 C82.36,110.00 82.14,109.58 82.46,109.06 C82.78,108.55 82.25,107.66 81.27,107.09 C80.30,106.52 79.87,106.05 80.32,106.03 C80.67,106.02 80.16,105.02 79.14,103.63 C80.72,105.44 80.89,105.30 80.34,103.20 C80.08,102.21 78.95,100.83 77.83,100.13 C76.66,99.39 76.19,99.36 76.41,99.96 C75.77,98.92 75.44,98.09 75.61,97.82 C75.89,97.36 75.43,96.72 74.57,96.39 C73.71,96.06 73.25,95.40 73.54,94.93 C73.83,94.46 73.19,93.19 72.12,92.12 C71.05,91.05 70.42,89.91 70.73,89.61 C71.03,89.30 70.55,88.76 69.65,88.42 C68.75,88.07 68.26,87.39 68.56,86.90 C68.87,86.40 68.61,86.00 68.00,86.00 C67.39,86.00 67.17,85.53 67.53,84.95 C67.96,84.25 65.93,84.00 61.39,84.20 L 54.60 84.50 L 54.89 113.50 C55.09,134.14 55.51,142.70 56.34,143.23 C58.49,144.60 63.76,144.07 64.39,142.42 C64.73,141.55 65.00,131.87 65.00,120.92 C65.00,120.71 65.00,120.51 65.00,120.31 C65.00,120.73 65.00,121.15 65.00,121.58 C65.00,133.00 65.24,142.10 65.53,141.81 C65.82,141.52 66.08,133.79 66.11,124.63 ZM 36.08 141.89 C38.19,144.75 42.00,146.18 42.00,144.12 C42.00,143.63 42.95,142.99 44.10,142.68 C45.26,142.38 45.90,141.66 45.54,141.07 C45.18,140.48 45.36,140.00 45.94,140.00 C46.52,140.00 47.00,139.10 47.00,138.00 C47.00,136.90 46.52,136.00 45.94,136.00 C45.36,136.00 45.15,135.57 45.47,135.05 C46.17,133.91 39.66,132.53 37.50,133.36 C36.66,133.68 35.49,135.03 34.88,136.36 C33.96,138.38 34.16,139.30 36.08,141.89 ZM 66.55 101.54 C66.02,101.39 65.67,102.06 65.44,103.77 C65.57,102.00 65.73,101.00 65.91,101.00 C66.01,101.00 66.24,101.19 66.55,101.54 Z" fill="rgb(81,44,211)"/>
<path d="M 36.08 141.89 C34.16,139.30 33.96,138.38 34.88,136.36 C35.49,135.03 36.66,133.68 37.50,133.36 C39.66,132.53 46.17,133.91 45.47,135.05 C45.15,135.57 45.36,136.00 45.94,136.00 C46.52,136.00 47.00,136.90 47.00,138.00 C47.00,139.10 46.52,140.00 45.94,140.00 C45.36,140.00 45.18,140.48 45.54,141.07 C45.90,141.66 45.26,142.38 44.10,142.68 C42.95,142.99 42.00,143.63 42.00,144.12 C42.00,146.18 38.19,144.75 36.08,141.89 ZM 56.34 143.23 C55.51,142.70 55.09,134.14 54.89,113.50 L 54.60 84.50 L 61.39 84.20 C65.93,84.00 67.96,84.25 67.53,84.95 C67.17,85.53 67.39,86.00 68.00,86.00 C68.61,86.00 68.87,86.40 68.56,86.90 C68.26,87.39 68.75,88.07 69.65,88.42 C70.55,88.76 71.03,89.30 70.73,89.61 C70.42,89.91 71.05,91.05 72.12,92.12 C73.19,93.19 73.83,94.46 73.54,94.93 C73.25,95.40 73.71,96.06 74.57,96.39 C75.43,96.72 75.89,97.36 75.61,97.82 C75.33,98.28 76.46,100.31 78.12,102.33 C79.78,104.35 80.78,106.01 80.32,106.03 C79.87,106.05 80.30,106.52 81.27,107.09 C82.25,107.66 82.78,108.55 82.46,109.06 C82.14,109.58 82.36,110.00 82.94,110.00 C83.52,110.00 84.00,110.68 84.00,111.50 C84.00,112.32 84.48,113.00 85.06,113.00 C85.64,113.00 85.87,113.40 85.56,113.90 C85.26,114.39 85.71,115.06 86.57,115.39 C87.43,115.72 87.85,116.44 87.50,116.99 C87.16,117.55 87.39,118.00 88.00,118.00 C88.61,118.00 88.87,118.40 88.56,118.90 C88.26,119.39 88.71,120.06 89.57,120.39 C90.43,120.72 90.88,121.39 90.57,121.89 C90.11,122.64 92.05,124.00 93.58,124.00 C93.81,124.00 94.00,115.00 94.00,104.00 L 94.00 84.00 L 99.50 84.00 L 105.00 84.00 L 104.98 112.75 C104.98,128.56 104.60,142.09 104.14,142.81 C103.59,143.68 101.67,144.02 98.49,143.81 L 93.68 143.50 L 85.82 131.00 C81.49,124.12 77.29,117.71 76.48,116.74 C75.67,115.77 75.00,114.75 75.00,114.46 C75.00,113.24 66.73,101.00 65.91,101.00 C65.39,101.00 65.00,109.61 65.00,120.92 C65.00,131.87 64.73,141.55 64.39,142.42 C63.76,144.07 58.49,144.60 56.34,143.23 ZM 116.69 143.36 C116.31,142.98 116.00,129.47 116.00,113.33 L 116.00 84.00 L 131.39 84.00 L 146.77 84.00 L 147.20 86.89 C147.43,88.49 147.27,90.74 146.84,91.89 C146.13,93.83 145.31,94.00 136.53,94.00 L 127.00 94.00 L 127.00 100.98 C127.00,107.61 127.13,107.99 129.53,108.60 C130.91,108.94 134.96,109.04 138.53,108.82 L 145.00 108.41 L 145.00 112.70 L 145.00 117.00 L 135.96 117.00 L 126.92 117.00 L 127.21 125.25 L 127.50 133.50 L 137.80 133.79 L 148.11 134.07 L 147.80 138.79 L 147.50 143.50 L 132.44 143.78 C124.16,143.93 117.07,143.74 116.69,143.36 ZM 168.47 142.75 C168.22,142.06 167.90,130.93 167.76,118.00 L 167.50 94.50 L 160.48 93.95 C156.62,93.65 152.91,93.06 152.23,92.64 C151.55,92.22 151.00,90.11 151.00,87.94 L 151.00 84.00 L 173.00 84.00 L 195.00 84.00 L 195.00 87.57 C195.00,93.18 193.16,94.28 184.46,93.84 L 177.00 93.46 L 177.00 118.73 L 177.00 144.00 L 172.97 144.00 C170.66,144.00 168.74,143.47 168.47,142.75 Z" fill="rgb(248,244,252)"/>
</g>
</svg>